<svg id="visual" viewBox="0 0 960 540" width="960" height="540" xmlns="http://www.w3.org/2000/svg" xmlns:xlink="http://www.w3.org/1999/xlink" version="1.1"><rect x="0" y="0" width="960" height="540" fill="#000839"></rect><path d="M0 239L17.8 236C35.7 233 71.3 227 106.8 230.8C142.3 234.7 177.7 248.3 213.2 251.7C248.7 255 284.3 248 320 244.2C355.7 240.3 391.3 239.7 426.8 241.5C462.3 243.3 497.7 247.7 533.2 247.2C568.7 246.7 604.3 241.3 640 242C675.7 242.7 711.3 249.3 746.8 254.7C782.3 260 817.7 264 853.2 271.8C888.7 279.7 924.3 291.3 942.2 297.2L960 303L960 0L942.2 0C924.3 0 888.7 0 853.2 0C817.7 0 782.3 0 746.8 0C711.3 0 675.7 0 640 0C604.3 0 568.7 0 533.2 0C497.7 0 462.3 0 426.8 0C391.3 0 355.7 0 320 0C284.3 0 248.7 0 213.2 0C177.7 0 142.3 0 106.8 0C71.3 0 35.7 0 17.8 0L0 0Z" fill="#c62368"></path><path d="M0 204L17.8 203.2C35.7 202.3 71.3 200.7 106.8 206.7C142.3 212.7 177.7 226.3 213.2 232C248.7 237.7 284.3 235.3 320 233.8C355.7 232.3 391.3 231.7 426.8 229.3C462.3 227 497.7 223 533.2 222.8C568.7 222.7 604.3 226.3 640 228C675.7 229.7 711.3 229.3 746.8 226.2C782.3 223 817.7 217 853.2 207.7C888.7 198.3 924.3 185.7 942.2 179.3L960 173L960 0L942.2 0C924.3 0 888.7 0 853.2 0C817.7 0 782.3 0 746.8 0C711.3 0 675.7 0 640 0C604.3 0 568.7 0 533.2 0C497.7 0 462.3 0 426.8 0C391.3 0 355.7 0 320 0C284.3 0 248.7 0 213.2 0C177.7 0 142.3 0 106.8 0C71.3 0 35.7 0 17.8 0L0 0Z" fill="#dc2f59"></path><path d="M0 170L17.8 173.3C35.7 176.7 71.3 183.3 106.8 181.7C142.3 180 177.7 170 213.2 170.3C248.7 170.7 284.3 181.3 320 176.2C355.7 171 391.3 150 426.8 150.3C462.3 150.7 497.7 172.3 533.2 182.8C568.7 193.3 604.3 192.7 640 190C675.7 187.3 711.3 182.7 746.8 180.2C782.3 177.7 817.7 177.3 853.2 178.8C888.7 180.3 924.3 183.7 942.2 185.3L960 187L960 0L942.2 0C924.3 0 888.7 0 853.2 0C817.7 0 782.3 0 746.8 0C711.3 0 675.7 0 640 0C604.3 0 568.7 0 533.2 0C497.7 0 462.3 0 426.8 0C391.3 0 355.7 0 320 0C284.3 0 248.7 0 213.2 0C177.7 0 142.3 0 106.8 0C71.3 0 35.7 0 17.8 0L0 0Z" fill="#ec4347"></path><path d="M0 116L17.8 117.8C35.7 119.7 71.3 123.3 106.8 119.8C142.3 116.3 177.7 105.7 213.2 102.7C248.7 99.7 284.3 104.3 320 105C355.7 105.7 391.3 102.3 426.8 106.8C462.3 111.3 497.7 123.7 533.2 121.7C568.7 119.7 604.3 103.3 640 102C675.7 100.7 711.3 114.3 746.8 116.8C782.3 119.3 817.7 110.7 853.2 112.3C888.7 114 924.3 126 942.2 132L960 138L960 0L942.2 0C924.3 0 888.7 0 853.2 0C817.7 0 782.3 0 746.8 0C711.3 0 675.7 0 640 0C604.3 0 568.7 0 533.2 0C497.7 0 462.3 0 426.8 0C391.3 0 355.7 0 320 0C284.3 0 248.7 0 213.2 0C177.7 0 142.3 0 106.8 0C71.3 0 35.7 0 17.8 0L0 0Z" fill="#f55c31"></path><path d="M0 67L17.8 66C35.7 65 71.3 63 106.8 63.3C142.3 63.7 177.7 66.3 213.2 63.5C248.7 60.7 284.3 52.3 320 50.8C355.7 49.3 391.3 54.7 426.8 60.2C462.3 65.7 497.7 71.3 533.2 69.3C568.7 67.3 604.3 57.7 640 56.7C675.7 55.7 711.3 63.3 746.8 69.2C782.3 75 817.7 79 853.2 78C888.7 77 924.3 71 942.2 68L960 65L960 0L942.2 0C924.3 0 888.7 0 853.2 0C817.7 0 782.3 0 746.8 0C711.3 0 675.7 0 640 0C604.3 0 568.7 0 533.2 0C497.7 0 462.3 0 426.8 0C391.3 0 355.7 0 320 0C284.3 0 248.7 0 213.2 0C177.7 0 142.3 0 106.8 0C71.3 0 35.7 0 17.8 0L0 0Z" fill="#f7770f"></path></svg>