<svg id="visual" viewBox="0 0 900 600" width="900" height="600" xmlns="http://www.w3.org/2000/svg" xmlns:xlink="http://www.w3.org/1999/xlink" version="1.1"><rect x="0" y="0" width="900" height="600" fill="#000839"></rect><path d="M0 256L16.7 270.3C33.3 284.7 66.7 313.3 100 327C133.3 340.7 166.7 339.3 200 324.8C233.3 310.3 266.7 282.7 300 275.2C333.3 267.7 366.7 280.3 400 286.2C433.3 292 466.7 291 500 285.8C533.3 280.7 566.7 271.3 600 270C633.3 268.7 666.7 275.3 700 284.2C733.3 293 766.7 304 800 306.2C833.3 308.3 866.7 301.7 883.3 298.3L900 295L900 0L883.3 0C866.7 0 833.3 0 800 0C766.7 0 733.3 0 700 0C666.7 0 633.3 0 600 0C566.7 0 533.3 0 500 0C466.7 0 433.3 0 400 0C366.7 0 333.3 0 300 0C266.7 0 233.3 0 200 0C166.7 0 133.3 0 100 0C66.7 0 33.3 0 16.7 0L0 0Z" fill="#c62368"></path><path d="M0 218L16.7 214.7C33.3 211.3 66.7 204.7 100 211.5C133.3 218.3 166.7 238.7 200 246.8C233.3 255 266.7 251 300 247.7C333.3 244.3 366.7 241.7 400 234.5C433.3 227.3 466.7 215.7 500 221.5C533.3 227.3 566.7 250.7 600 254.3C633.3 258 666.7 242 700 238.5C733.3 235 766.7 244 800 241.2C833.3 238.3 866.7 223.7 883.3 216.3L900 209L900 0L883.3 0C866.7 0 833.3 0 800 0C766.7 0 733.3 0 700 0C666.7 0 633.3 0 600 0C566.7 0 533.3 0 500 0C466.7 0 433.3 0 400 0C366.7 0 333.3 0 300 0C266.7 0 233.3 0 200 0C166.7 0 133.3 0 100 0C66.7 0 33.3 0 16.7 0L0 0Z" fill="#dc2f59"></path><path d="M0 208L16.7 205.2C33.3 202.3 66.7 196.7 100 186C133.3 175.3 166.7 159.7 200 161.5C233.3 163.3 266.7 182.7 300 185.8C333.3 189 366.7 176 400 177.2C433.3 178.3 466.7 193.7 500 197C533.3 200.3 566.7 191.7 600 183.7C633.3 175.7 666.7 168.3 700 168.2C733.3 168 766.7 175 800 182.8C833.3 190.7 866.7 199.3 883.3 203.7L900 208L900 0L883.3 0C866.7 0 833.3 0 800 0C766.7 0 733.3 0 700 0C666.7 0 633.3 0 600 0C566.7 0 533.3 0 500 0C466.7 0 433.3 0 400 0C366.7 0 333.3 0 300 0C266.7 0 233.3 0 200 0C166.7 0 133.3 0 100 0C66.7 0 33.3 0 16.7 0L0 0Z" fill="#ec4347"></path><path d="M0 118L16.7 121.8C33.3 125.7 66.7 133.3 100 130.5C133.3 127.7 166.7 114.3 200 110.3C233.3 106.3 266.7 111.7 300 113.3C333.3 115 366.7 113 400 112C433.3 111 466.7 111 500 111C533.3 111 566.7 111 600 110.2C633.3 109.3 666.7 107.7 700 110.2C733.3 112.7 766.7 119.3 800 121.5C833.3 123.7 866.7 121.3 883.3 120.2L900 119L900 0L883.3 0C866.7 0 833.3 0 800 0C766.7 0 733.3 0 700 0C666.7 0 633.3 0 600 0C566.7 0 533.3 0 500 0C466.7 0 433.3 0 400 0C366.7 0 333.3 0 300 0C266.7 0 233.3 0 200 0C166.7 0 133.3 0 100 0C66.7 0 33.3 0 16.7 0L0 0Z" fill="#f55c31"></path><path d="M0 96L16.7 92.3C33.3 88.7 66.7 81.3 100 73C133.3 64.7 166.7 55.3 200 55.7C233.3 56 266.7 66 300 66.5C333.3 67 366.7 58 400 55.2C433.3 52.3 466.7 55.7 500 59.5C533.3 63.3 566.7 67.7 600 71C633.3 74.3 666.7 76.7 700 76.8C733.3 77 766.7 75 800 75.2C833.3 75.3 866.7 77.7 883.3 78.8L900 80L900 0L883.3 0C866.7 0 833.3 0 800 0C766.7 0 733.3 0 700 0C666.7 0 633.3 0 600 0C566.7 0 533.3 0 500 0C466.7 0 433.3 0 400 0C366.7 0 333.3 0 300 0C266.7 0 233.3 0 200 0C166.7 0 133.3 0 100 0C66.7 0 33.3 0 16.7 0L0 0Z" fill="#f7770f"></path></svg>