<svg id="visual" viewBox="0 0 900 600" width="900" height="600" xmlns="http://www.w3.org/2000/svg" xmlns:xlink="http://www.w3.org/1999/xlink" version="1.1"><path d="M0 31L82 31L164 91L245 49L327 43L409 73L491 79L573 61L655 31L736 73L818 79L900 37L900 0L818 0L736 0L655 0L573 0L491 0L409 0L327 0L245 0L164 0L82 0L0 0Z" fill="#715df2"></path><path d="M0 133L82 139L164 193L245 145L327 175L409 169L491 145L573 157L655 181L736 139L818 229L900 199L900 35L818 77L736 71L655 29L573 59L491 77L409 71L327 41L245 47L164 89L82 29L0 29Z" fill="#008eff"></path><path d="M0 241L82 379L164 331L245 343L327 319L409 277L491 283L573 349L655 289L736 235L818 391L900 331L900 197L818 227L736 137L655 179L573 155L491 143L409 167L327 173L245 143L164 191L82 137L0 131Z" fill="#00b2ff"></path><path d="M0 451L82 475L164 427L245 511L327 511L409 487L491 469L573 427L655 469L736 463L818 505L900 493L900 329L818 389L736 233L655 287L573 347L491 281L409 275L327 317L245 341L164 329L82 377L0 239Z" fill="#00cfff"></path><path d="M0 559L82 523L164 523L245 553L327 553L409 565L491 559L573 523L655 517L736 565L818 547L900 529L900 491L818 503L736 461L655 467L573 425L491 467L409 485L327 509L245 509L164 425L82 473L0 449Z" fill="#00e9fa"></path><path d="M0 601L82 601L164 601L245 601L327 601L409 601L491 601L573 601L655 601L736 601L818 601L900 601L900 527L818 545L736 563L655 515L573 521L491 557L409 563L327 551L245 551L164 521L82 521L0 557Z" fill="#02ffe1"></path></svg>